<svg width="632" height="127" viewBox="0 0 632 127" fill="none" xmlns="http://www.w3.org/2000/svg">
<path d="M3.464 99L1.59567 98.2863L0.559077 101H3.464V99ZM38.888 6.26399V4.26399H37.511L37.0197 5.55031L38.888 6.26399ZM63.944 6.26399L65.8123 5.55031L65.321 4.26399H63.944V6.26399ZM99.368 99V101H102.273L101.236 98.2863L99.368 99ZM75.176 99L73.3173 99.7384L73.8185 101H75.176V99ZM66.824 77.976L68.6827 77.2376L68.1815 75.976H66.824V77.976ZM35.864 77.976V75.976H34.4978L34.001 77.2486L35.864 77.976ZM27.656 99V101H29.0222L29.5191 99.7274L27.656 99ZM39.032 60.84L37.1621 60.1304L36.1339 62.84H39.032V60.84ZM63.656 60.84V62.84H66.5662L65.5231 60.1232L63.656 60.84ZM51.272 28.584L53.1391 27.8672L51.2611 22.9755L49.4021 27.8744L51.272 28.584ZM5.33233 99.7137L40.7563 6.97767L37.0197 5.55031L1.59567 98.2863L5.33233 99.7137ZM38.888 8.26399H63.944V4.26399H38.888V8.26399ZM62.0757 6.97767L97.4997 99.7137L101.236 98.2863L65.8123 5.55031L62.0757 6.97767ZM99.368 97H75.176V101H99.368V97ZM77.0347 98.2616L68.6827 77.2376L64.9653 78.7144L73.3173 99.7384L77.0347 98.2616ZM66.824 75.976H35.864V79.976H66.824V75.976ZM34.001 77.2486L25.793 98.2726L29.5191 99.7274L37.7271 78.7034L34.001 77.2486ZM27.656 97H3.464V101H27.656V97ZM39.032 62.84H63.656V58.84H39.032V62.84ZM65.5231 60.1232L53.1391 27.8672L49.4049 29.3008L61.7889 61.5568L65.5231 60.1232ZM49.4021 27.8744L37.1621 60.1304L40.9019 61.5496L53.1419 29.2936L49.4021 27.8744ZM126.385 91.512L125.069 93.0185L125.08 93.0275L126.385 91.512ZM126.817 38.088L125.555 36.5364L125.545 36.5447L126.817 38.088ZM168.433 30.456L168.021 32.4131L168.05 32.4193L168.08 32.4245L168.433 30.456ZM179.233 33.912H181.233V32.6447L180.087 32.1035L179.233 33.912ZM179.233 50.328L178.364 52.1295L181.233 53.5126V50.328H179.233ZM144.961 50.472L143.754 48.8772L143.743 48.8852L143.733 48.8933L144.961 50.472ZM144.673 78.984L143.325 80.4619L143.337 80.4729L143.35 80.4837L144.673 78.984ZM179.377 78.984H181.377V75.7479L178.482 77.1951L179.377 78.984ZM179.377 96.12L180.189 97.9476L181.377 97.4197V96.12H179.377ZM168.145 99.432L167.816 97.4592L167.808 97.4605L168.145 99.432ZM155.041 98.44C143.165 98.44 134.132 95.5439 127.69 89.9965L125.08 93.0275C132.462 99.3841 142.533 102.44 155.041 102.44V98.44ZM127.7 90.0055C121.443 84.5413 118.161 76.2899 118.161 64.872H114.161C114.161 77.0701 117.695 86.5787 125.069 93.0185L127.7 90.0055ZM118.161 64.872C118.161 53.2744 121.578 44.9987 128.089 39.6313L125.545 36.5447C117.848 42.8893 114.161 52.4696 114.161 64.872H118.161ZM128.079 39.6396C134.832 34.1473 143.896 31.304 155.473 31.304V27.304C143.241 27.304 133.202 30.3167 125.555 36.5364L128.079 39.6396ZM155.473 31.304C160.37 31.304 164.545 31.6814 168.021 32.4131L168.845 28.4989C165.025 27.6946 160.56 27.304 155.473 27.304V31.304ZM168.08 32.4245C171.65 33.0653 175.081 34.1633 178.379 35.7205L180.087 32.1035C176.473 30.3967 172.704 29.1907 168.786 28.4875L168.08 32.4245ZM177.233 33.912V50.328H181.233V33.912H177.233ZM180.101 48.5265C174.404 45.7796 167.808 44.44 160.369 44.44V48.44C167.329 48.44 173.309 49.6924 178.364 52.1295L180.101 48.5265ZM160.369 44.44C153.424 44.44 147.79 45.8227 143.754 48.8772L146.168 52.0668C149.235 49.7453 153.874 48.44 160.369 48.44V44.44ZM143.733 48.8933C139.563 52.1368 137.777 57.7029 137.777 64.872H141.777C141.777 58.2171 143.447 54.1832 146.189 52.0507L143.733 48.8933ZM137.777 64.872C137.777 71.6062 139.486 76.9613 143.325 80.4619L146.02 77.5061C143.332 75.0547 141.777 71.0018 141.777 64.872H137.777ZM143.35 80.4837C147.149 83.8362 152.922 85.304 160.225 85.304V81.304C153.32 81.304 148.725 79.8918 145.996 77.4843L143.35 80.4837ZM160.225 85.304C167.515 85.304 174.21 83.8037 180.271 80.7729L178.482 77.1951C173.024 79.9243 166.95 81.304 160.225 81.304V85.304ZM177.377 78.984V96.12H181.377V78.984H177.377ZM178.565 94.2924C175.275 95.7545 171.695 96.8128 167.816 97.4592L168.474 101.405C172.659 100.707 176.567 99.5575 180.189 97.9476L178.565 94.2924ZM167.808 97.4605C164.003 98.1102 159.75 98.44 155.041 98.44V102.44C159.932 102.44 164.415 102.098 168.481 101.403L167.808 97.4605ZM214.941 93.96L213.463 95.307L213.471 95.3159L213.479 95.3246L214.941 93.96ZM209.038 48.312H211.038V46.312H209.038V48.312ZM199.822 48.312H197.822V50.312H199.822V48.312ZM199.822 30.744V28.744H197.822V30.744H199.822ZM209.038 30.744V32.744H211.038V30.744H209.038ZM209.038 16.488L208.521 14.5557L207.038 14.9521V16.488H209.038ZM232.222 10.296H234.222V7.69173L231.705 8.36372L232.222 10.296ZM232.222 30.744H230.222V32.744H232.222V30.744ZM248.782 30.744L250.778 30.8586L250.9 28.744H248.782V30.744ZM247.773 48.312V50.312H249.662L249.77 48.4266L247.773 48.312ZM232.222 48.312V46.312H230.222V48.312H232.222ZM234.67 81.432L233.398 82.9759L233.426 82.9988L233.455 83.0207L234.67 81.432ZM250.51 81.864H252.51V79.0891L249.877 79.9666L250.51 81.864ZM250.51 97.56L251.293 99.4003L252.51 98.8825V97.56H250.51ZM233.661 98.44C225.525 98.44 219.919 96.3616 216.404 92.5954L213.479 95.3246C218.028 100.198 224.902 102.44 233.661 102.44V98.44ZM216.42 92.613C212.91 88.7604 211.038 83.3423 211.038 76.104H207.038C207.038 84.0337 209.101 90.5196 213.463 95.307L216.42 92.613ZM211.038 76.104V48.312H207.038V76.104H211.038ZM209.038 46.312H199.822V50.312H209.038V46.312ZM201.822 48.312V30.744H197.822V48.312H201.822ZM199.822 32.744H209.038V28.744H199.822V32.744ZM211.038 30.744V16.488H207.038V30.744H211.038ZM209.554 18.4203L232.738 12.2283L231.705 8.36372L208.521 14.5557L209.554 18.4203ZM230.222 10.296V30.744H234.222V10.296H230.222ZM232.222 32.744H248.782V28.744H232.222V32.744ZM246.785 30.6294L245.777 48.1974L249.77 48.4266L250.778 30.8586L246.785 30.6294ZM247.773 46.312H232.222V50.312H247.773V46.312ZM230.222 48.312V74.52H234.222V48.312H230.222ZM230.222 74.52C230.222 78.0541 231.101 81.0838 233.398 82.9759L235.941 79.8881C234.974 79.0922 234.222 77.5139 234.222 74.52H230.222ZM233.455 83.0207C235.588 84.6518 238.551 85.304 242.014 85.304V81.304C238.948 81.304 237.015 80.7082 235.884 79.8433L233.455 83.0207ZM242.014 85.304C245.031 85.304 248.076 84.7832 251.142 83.7614L249.877 79.9666C247.183 80.8648 244.564 81.304 242.014 81.304V85.304ZM248.51 81.864V97.56H252.51V81.864H248.51ZM249.726 95.7197C245.536 97.503 240.206 98.44 233.661 98.44V102.44C240.557 102.44 246.459 101.457 251.293 99.4003L249.726 95.7197ZM278.449 19.944H276.449V21.944H278.449V19.944ZM278.449 2.52V0.519998H276.449V2.52H278.449ZM303.649 2.52H305.649V0.519998H303.649V2.52ZM303.649 19.944V21.944H305.649V19.944H303.649ZM280.321 99H278.321V101H280.321V99ZM280.321 47.88H282.321V45.88H280.321V47.88ZM270.241 47.88L268.255 47.6463L267.992 49.88H270.241V47.88ZM272.257 30.744V28.744H270.478L270.271 30.5103L272.257 30.744ZM303.505 30.744H305.505V28.744H303.505V30.744ZM303.505 99V101H305.505V99H303.505ZM280.449 19.944V2.52H276.449V19.944H280.449ZM278.449 4.52H303.649V0.519998H278.449V4.52ZM301.649 2.52V19.944H305.649V2.52H301.649ZM303.649 17.944H278.449V21.944H303.649V17.944ZM282.321 99V47.88H278.321V99H282.321ZM280.321 45.88H270.241V49.88H280.321V45.88ZM272.227 48.1137L274.243 30.9777L270.271 30.5103L268.255 47.6463L272.227 48.1137ZM272.257 32.744H303.505V28.744H272.257V32.744ZM301.505 30.744V99H305.505V30.744H301.505ZM303.505 97H280.321V101H303.505V97ZM353.914 99L352.053 99.734L352.553 101H353.914V99ZM326.986 30.744V28.744H324.047L325.125 31.478L326.986 30.744ZM351.178 30.744L353.073 30.1042L352.613 28.744H351.178V30.744ZM366.154 75.096L364.259 75.7358L366.145 81.3208L368.047 75.7413L366.154 75.096ZM381.274 30.744V28.744H379.843L379.381 30.0986L381.274 30.744ZM405.466 30.744L407.326 31.478L408.405 28.744H405.466V30.744ZM378.538 99V101H379.899L380.398 99.734L378.538 99ZM355.774 98.266L328.846 30.01L325.125 31.478L352.053 99.734L355.774 98.266ZM326.986 32.744H351.178V28.744H326.986V32.744ZM349.283 31.3838L364.259 75.7358L368.049 74.4562L353.073 30.1042L349.283 31.3838ZM368.047 75.7413L383.167 31.3893L379.381 30.0986L364.261 74.4507L368.047 75.7413ZM381.274 32.744H405.466V28.744H381.274V32.744ZM403.605 30.01L376.677 98.266L380.398 99.734L407.326 31.478L403.605 30.01ZM378.538 97H353.914V101H378.538V97ZM431.28 19.944H429.28V21.944H431.28V19.944ZM431.28 2.52V0.519998H429.28V2.52H431.28ZM456.48 2.52H458.48V0.519998H456.48V2.52ZM456.48 19.944V21.944H458.48V19.944H456.48ZM433.152 99H431.152V101H433.152V99ZM433.152 47.88H435.152V45.88H433.152V47.88ZM423.072 47.88L421.086 47.6463L420.823 49.88H423.072V47.88ZM425.088 30.744V28.744H423.31L423.102 30.5103L425.088 30.744ZM456.336 30.744H458.336V28.744H456.336V30.744ZM456.336 99V101H458.336V99H456.336ZM433.28 19.944V2.52H429.28V19.944H433.28ZM431.28 4.52H456.48V0.519998H431.28V4.52ZM454.48 2.52V19.944H458.48V2.52H454.48ZM456.48 17.944H431.28V21.944H456.48V17.944ZM435.152 99V47.88H431.152V99H435.152ZM433.152 45.88H423.072V49.88H433.152V45.88ZM425.058 48.1137L427.074 30.9777L423.102 30.5103L421.086 47.6463L425.058 48.1137ZM425.088 32.744H456.336V28.744H425.088V32.744ZM454.336 30.744V99H458.336V30.744H454.336ZM456.336 97H433.152V101H456.336V97ZM494.87 93.96L493.391 95.307L493.399 95.3159L493.408 95.3246L494.87 93.96ZM488.966 48.312H490.966V46.312H488.966V48.312ZM479.75 48.312H477.75V50.312H479.75V48.312ZM479.75 30.744V28.744H477.75V30.744H479.75ZM488.966 30.744V32.744H490.966V30.744H488.966ZM488.966 16.488L488.45 14.5557L486.966 14.9521V16.488H488.966ZM512.15 10.296H514.15V7.69173L511.634 8.36372L512.15 10.296ZM512.15 30.744H510.15V32.744H512.15V30.744ZM528.71 30.744L530.706 30.8586L530.828 28.744H528.71V30.744ZM527.702 48.312V50.312H529.59L529.698 48.4266L527.702 48.312ZM512.15 48.312V46.312H510.15V48.312H512.15ZM514.598 81.432L513.326 82.9759L513.354 82.9988L513.383 83.0207L514.598 81.432ZM530.438 81.864H532.438V79.0891L529.805 79.9666L530.438 81.864ZM530.438 97.56L531.221 99.4003L532.438 98.8825V97.56H530.438ZM513.59 98.44C505.454 98.44 499.847 96.3616 496.332 92.5954L493.408 95.3246C497.956 100.198 504.83 102.44 513.59 102.44V98.44ZM496.348 92.613C492.838 88.7604 490.966 83.3423 490.966 76.104H486.966C486.966 84.0337 489.029 90.5196 493.391 95.307L496.348 92.613ZM490.966 76.104V48.312H486.966V76.104H490.966ZM488.966 46.312H479.75V50.312H488.966V46.312ZM481.75 48.312V30.744H477.75V48.312H481.75ZM479.75 32.744H488.966V28.744H479.75V32.744ZM490.966 30.744V16.488H486.966V30.744H490.966ZM489.482 18.4203L512.666 12.2283L511.634 8.36372L488.45 14.5557L489.482 18.4203ZM510.15 10.296V30.744H514.15V10.296H510.15ZM512.15 32.744H528.71V28.744H512.15V32.744ZM526.713 30.6294L525.705 48.1974L529.698 48.4266L530.706 30.8586L526.713 30.6294ZM527.702 46.312H512.15V50.312H527.702V46.312ZM510.15 48.312V74.52H514.15V48.312H510.15ZM510.15 74.52C510.15 78.0541 511.029 81.0838 513.326 82.9759L515.869 79.8881C514.902 79.0922 514.15 77.5139 514.15 74.52H510.15ZM513.383 83.0207C515.516 84.6518 518.479 85.304 521.942 85.304V81.304C518.876 81.304 516.944 80.7082 515.812 79.8433L513.383 83.0207ZM521.942 85.304C524.959 85.304 528.005 84.7832 531.07 83.7614L529.805 79.9666C527.111 80.8648 524.492 81.304 521.942 81.304V85.304ZM528.438 81.864V97.56H532.438V81.864H528.438ZM529.654 95.7197C525.464 97.503 520.134 98.44 513.59 98.44V102.44C520.485 102.44 526.388 101.457 531.221 99.4003L529.654 95.7197ZM558.676 123.768L558.98 121.791L558.948 121.786L558.915 121.782L558.676 123.768ZM551.476 121.896H549.476V123.25L550.733 123.753L551.476 121.896ZM551.476 105.768L552.142 103.882L549.476 102.941V105.768H551.476ZM555.94 106.92L555.657 108.9L555.667 108.901L555.676 108.902L555.94 106.92ZM569.044 105.048L567.935 103.384L567.889 103.415L567.844 103.448L569.044 105.048ZM575.092 97.704L576.832 98.6912L577.337 97.8013L576.911 96.8711L575.092 97.704ZM544.42 30.744V28.744H541.304L542.602 31.5769L544.42 30.744ZM568.756 30.744L570.603 29.9769L570.091 28.744H568.756V30.744ZM586.756 74.088L584.909 74.855L586.771 79.3387L588.608 74.8445L586.756 74.088ZM604.468 30.744V28.744H603.125L602.617 29.9874L604.468 30.744ZM628.66 30.744L630.507 31.5123L631.659 28.744H628.66V30.744ZM602.596 93.384L600.75 92.6157L600.749 92.6168L602.596 93.384ZM593.956 109.656L592.308 108.523L592.303 108.531L592.297 108.539L593.956 109.656ZM582.868 120.456L581.851 118.734L581.836 118.743L581.822 118.751L582.868 120.456ZM567.604 122.344C564.216 122.344 561.347 122.155 558.98 121.791L558.372 125.745C560.998 126.149 564.081 126.344 567.604 126.344V122.344ZM558.915 121.782C556.699 121.516 554.468 120.939 552.219 120.039L550.733 123.753C553.284 124.773 555.853 125.444 558.438 125.754L558.915 121.782ZM553.476 121.896V105.768H549.476V121.896H553.476ZM550.811 107.654C552.535 108.263 554.153 108.685 555.657 108.9L556.223 104.94C555.039 104.771 553.682 104.425 552.142 103.882L550.811 107.654ZM555.676 108.902C557.203 109.106 558.731 109.208 560.26 109.208V105.208C558.909 105.208 557.558 105.118 556.205 104.938L555.676 108.902ZM560.26 109.208C564.375 109.208 567.819 108.467 570.244 106.648L567.844 103.448C566.43 104.509 564.017 105.208 560.26 105.208V109.208ZM570.154 106.712C572.55 105.114 574.754 102.352 576.832 98.6912L573.353 96.7168C571.399 100.16 569.57 102.294 567.935 103.384L570.154 106.712ZM576.911 96.8711L546.239 29.9111L542.602 31.5769L573.274 98.5369L576.911 96.8711ZM544.42 32.744H568.756V28.744H544.42V32.744ZM566.909 31.511L584.909 74.855L588.603 73.3209L570.603 29.9769L566.909 31.511ZM588.608 74.8445L606.32 31.5005L602.617 29.9874L584.905 73.3315L588.608 74.8445ZM604.468 32.744H628.66V28.744H604.468V32.744ZM626.814 29.9757L600.75 92.6157L604.443 94.1523L630.507 31.5123L626.814 29.9757ZM600.749 92.6168C598.2 98.7539 595.383 104.05 592.308 108.523L595.604 110.789C598.865 106.046 601.808 100.494 604.443 94.1512L600.749 92.6168ZM592.297 108.539C589.27 113.034 585.782 116.411 581.851 118.734L583.886 122.178C588.403 119.509 592.307 115.686 595.615 110.773L592.297 108.539ZM581.822 118.751C577.971 121.115 573.262 122.344 567.604 122.344V126.344C573.851 126.344 579.317 124.981 583.914 122.161L581.822 118.751Z" fill="#B1EDF5"/>
</svg>
