<svg width="1122" height="140" viewBox="0 0 1122 140" fill="none" xmlns="http://www.w3.org/2000/svg">
<rect width="1122" height="140" fill="url(#paint0_linear)"/>
<path d="M53.8738 81V61.68H58.7038V77.28H67.8238V81H53.8738ZM77.1676 81.3C74.6876 81.3 72.6976 80.69 71.1976 79.47C69.6976 78.23 68.9476 76.37 68.9476 73.89C68.9476 71.63 69.5676 69.83 70.8076 68.49C72.0476 67.15 73.9076 66.48 76.3876 66.48C78.6476 66.48 80.3976 67.06 81.6376 68.22C82.8776 69.38 83.4976 70.94 83.4976 72.9V75.45H73.4176C73.6376 76.39 74.1476 77.05 74.9476 77.43C75.7676 77.79 76.8776 77.97 78.2776 77.97C79.0576 77.97 79.8476 77.9 80.6476 77.76C81.4676 77.62 82.1476 77.44 82.6876 77.22V80.37C82.0076 80.69 81.1976 80.92 80.2576 81.06C79.3176 81.22 78.2876 81.3 77.1676 81.3ZM73.4176 72.66H79.2976V72.03C79.2976 71.33 79.0876 70.78 78.6676 70.38C78.2476 69.96 77.5376 69.75 76.5376 69.75C75.3776 69.75 74.5676 69.99 74.1076 70.47C73.6476 70.93 73.4176 71.66 73.4176 72.66ZM91.8038 81.3C90.0438 81.3 88.7438 80.85 87.9038 79.95C87.0838 79.05 86.6738 77.81 86.6738 76.23V70.44H84.7538V66.78H86.6738V63.81L91.5038 62.52V66.78H94.9538L94.7438 70.44H91.5038V75.9C91.5038 76.58 91.6738 77.06 92.0138 77.34C92.3538 77.6 92.8638 77.73 93.5438 77.73C94.1238 77.73 94.7138 77.63 95.3138 77.43V80.7C94.3738 81.1 93.2038 81.3 91.8038 81.3ZM102.455 81.3C101.315 81.3 100.235 81.22 99.2145 81.06C98.1945 80.9 97.3845 80.7 96.7845 80.46V76.77C97.4845 77.07 98.2945 77.3 99.2145 77.46C100.135 77.62 100.955 77.7 101.675 77.7C102.535 77.7 103.155 77.66 103.535 77.58C103.935 77.5 104.135 77.28 104.135 76.92C104.135 76.52 103.815 76.22 103.175 76.02C102.535 75.82 101.655 75.53 100.535 75.15C99.2345 74.69 98.2445 74.16 97.5645 73.56C96.9045 72.94 96.5745 72.03 96.5745 70.83C96.5745 69.43 97.0945 68.36 98.1345 67.62C99.1945 66.86 100.875 66.48 103.175 66.48C104.075 66.48 104.965 66.55 105.845 66.69C106.725 66.83 107.445 66.99 108.005 67.17V70.8C107.445 70.54 106.805 70.35 106.085 70.23C105.365 70.11 104.715 70.05 104.135 70.05C103.395 70.05 102.765 70.1 102.245 70.2C101.745 70.28 101.495 70.49 101.495 70.83C101.495 71.21 101.775 71.48 102.335 71.64C102.895 71.78 103.705 72.02 104.765 72.36C105.885 72.7 106.755 73.07 107.375 73.47C107.995 73.85 108.435 74.31 108.695 74.85C108.955 75.39 109.085 76.07 109.085 76.89C109.085 78.31 108.525 79.4 107.405 80.16C106.285 80.92 104.635 81.3 102.455 81.3ZM127.755 81.3C124.375 81.3 121.795 80.44 120.015 78.72C118.255 76.98 117.375 74.57 117.375 71.49C117.375 68.27 118.235 65.78 119.955 64.02C121.695 62.26 124.285 61.38 127.725 61.38C128.905 61.38 129.955 61.47 130.875 61.65C131.815 61.83 132.715 62.07 133.575 62.37V66.6C131.835 65.88 130.005 65.52 128.085 65.52C126.085 65.52 124.615 66 123.675 66.96C122.755 67.92 122.295 69.43 122.295 71.49C122.295 73.45 122.785 74.89 123.765 75.81C124.745 76.73 126.205 77.19 128.145 77.19C129.085 77.19 130.015 77.11 130.935 76.95C131.855 76.77 132.745 76.5 133.605 76.14V80.4C132.765 80.68 131.875 80.9 130.935 81.06C129.995 81.22 128.935 81.3 127.755 81.3ZM143.461 81.3C140.721 81.3 138.701 80.67 137.401 79.41C136.101 78.13 135.451 76.29 135.451 73.89C135.451 71.51 136.101 69.68 137.401 68.4C138.721 67.12 140.741 66.48 143.461 66.48C146.201 66.48 148.221 67.12 149.521 68.4C150.841 69.68 151.501 71.51 151.501 73.89C151.501 76.29 150.851 78.13 149.551 79.41C148.251 80.67 146.221 81.3 143.461 81.3ZM143.461 77.52C144.581 77.52 145.381 77.24 145.861 76.68C146.341 76.12 146.581 75.19 146.581 73.89C146.581 72.59 146.341 71.66 145.861 71.1C145.381 70.54 144.581 70.26 143.461 70.26C142.361 70.26 141.571 70.54 141.091 71.1C140.611 71.66 140.371 72.59 140.371 73.89C140.371 75.19 140.611 76.12 141.091 76.68C141.571 77.24 142.361 77.52 143.461 77.52ZM153.952 81V66.78H158.452L158.602 68.01C159.182 67.61 159.912 67.26 160.792 66.96C161.672 66.64 162.612 66.48 163.612 66.48C165.452 66.48 166.792 66.92 167.632 67.8C168.472 68.68 168.892 70.04 168.892 71.88V81H164.062V72.27C164.062 71.47 163.892 70.9 163.552 70.56C163.212 70.22 162.602 70.05 161.722 70.05C161.202 70.05 160.672 70.17 160.132 70.41C159.592 70.65 159.142 70.95 158.782 71.31V81H153.952ZM177.644 81.3C175.884 81.3 174.584 80.85 173.744 79.95C172.924 79.05 172.514 77.81 172.514 76.23V70.44H170.594V66.78H172.514V63.81L177.344 62.52V66.78H180.794L180.584 70.44H177.344V75.9C177.344 76.58 177.514 77.06 177.854 77.34C178.194 77.6 178.704 77.73 179.384 77.73C179.964 77.73 180.554 77.63 181.154 77.43V80.7C180.214 81.1 179.044 81.3 177.644 81.3ZM187.454 81.3C186.554 81.3 185.714 81.14 184.934 80.82C184.174 80.5 183.564 80.01 183.104 79.35C182.644 78.67 182.414 77.83 182.414 76.83C182.414 75.37 182.904 74.23 183.884 73.41C184.884 72.57 186.374 72.15 188.354 72.15H192.314V71.82C192.314 71.1 192.074 70.59 191.594 70.29C191.114 69.97 190.214 69.81 188.894 69.81C187.274 69.81 185.684 70.06 184.124 70.56V67.44C184.824 67.16 185.674 66.93 186.674 66.75C187.694 66.57 188.764 66.48 189.884 66.48C192.084 66.48 193.804 66.93 195.044 67.83C196.304 68.73 196.934 70.16 196.934 72.12V81H192.704L192.464 79.8C191.944 80.28 191.274 80.65 190.454 80.91C189.654 81.17 188.654 81.3 187.454 81.3ZM188.984 78.33C189.744 78.33 190.404 78.2 190.964 77.94C191.524 77.68 191.974 77.35 192.314 76.95V74.94H188.894C187.474 74.94 186.764 75.51 186.764 76.65C186.764 77.17 186.944 77.58 187.304 77.88C187.664 78.18 188.224 78.33 188.984 78.33ZM207.331 81.3C204.791 81.3 202.801 80.68 201.361 79.44C199.941 78.2 199.231 76.35 199.231 73.89C199.231 71.39 199.971 69.53 201.451 68.31C202.951 67.09 204.941 66.48 207.421 66.48C208.461 66.48 209.361 66.56 210.121 66.72C210.901 66.86 211.651 67.1 212.371 67.44V70.86C211.251 70.32 209.941 70.05 208.441 70.05C207.041 70.05 205.971 70.33 205.231 70.89C204.511 71.45 204.151 72.45 204.151 73.89C204.151 75.23 204.491 76.21 205.171 76.83C205.851 77.43 206.931 77.73 208.411 77.73C209.871 77.73 211.201 77.43 212.401 76.83V80.4C211.681 80.72 210.901 80.95 210.061 81.09C209.241 81.23 208.331 81.3 207.331 81.3ZM220.71 81.3C218.95 81.3 217.65 80.85 216.81 79.95C215.99 79.05 215.58 77.81 215.58 76.23V70.44H213.66V66.78H215.58V63.81L220.41 62.52V66.78H223.86L223.65 70.44H220.41V75.9C220.41 76.58 220.58 77.06 220.92 77.34C221.26 77.6 221.77 77.73 222.45 77.73C223.03 77.73 223.62 77.63 224.22 77.43V80.7C223.28 81.1 222.11 81.3 220.71 81.3ZM241.256 81.3C239.456 81.3 237.886 81.01 236.546 80.43C235.226 79.85 234.196 78.99 233.456 77.85C232.736 76.71 232.376 75.31 232.376 73.65V61.68H237.206V73.2C237.206 74.54 237.556 75.54 238.256 76.2C238.956 76.86 239.956 77.19 241.256 77.19C242.556 77.19 243.556 76.86 244.256 76.2C244.956 75.54 245.306 74.54 245.306 73.2V61.68H250.136V73.65C250.136 75.31 249.766 76.71 249.026 77.85C248.306 78.99 247.276 79.85 245.936 80.43C244.616 81.01 243.056 81.3 241.256 81.3ZM258.167 81.3C257.027 81.3 255.947 81.22 254.927 81.06C253.907 80.9 253.097 80.7 252.497 80.46V76.77C253.197 77.07 254.007 77.3 254.927 77.46C255.847 77.62 256.667 77.7 257.387 77.7C258.247 77.7 258.867 77.66 259.247 77.58C259.647 77.5 259.847 77.28 259.847 76.92C259.847 76.52 259.527 76.22 258.887 76.02C258.247 75.82 257.367 75.53 256.247 75.15C254.947 74.69 253.957 74.16 253.277 73.56C252.617 72.94 252.287 72.03 252.287 70.83C252.287 69.43 252.807 68.36 253.847 67.62C254.907 66.86 256.587 66.48 258.887 66.48C259.787 66.48 260.677 66.55 261.557 66.69C262.437 66.83 263.157 66.99 263.717 67.17V70.8C263.157 70.54 262.517 70.35 261.797 70.23C261.077 70.11 260.427 70.05 259.847 70.05C259.107 70.05 258.477 70.1 257.957 70.2C257.457 70.28 257.207 70.49 257.207 70.83C257.207 71.21 257.487 71.48 258.047 71.64C258.607 71.78 259.417 72.02 260.477 72.36C261.597 72.7 262.467 73.07 263.087 73.47C263.707 73.85 264.147 74.31 264.407 74.85C264.667 75.39 264.797 76.07 264.797 76.89C264.797 78.31 264.237 79.4 263.117 80.16C261.997 80.92 260.347 81.3 258.167 81.3ZM266.943 75.72L266.763 66.75V61.68H271.593V66.75L271.413 75.72H266.943ZM266.643 81V77.52H271.713V81H266.643Z" fill="#7400B8"/>
<defs>
<linearGradient id="paint0_linear" x1="561" y1="0" x2="561" y2="140" gradientUnits="userSpaceOnUse">
<stop offset="0.546875" stop-color="#7FD8FE"/>
<stop offset="1" stop-color="#5AA9CB"/>
</linearGradient>
</defs>
</svg>
