<svg width="163" height="67" viewBox="0 0 163 67" fill="none" xmlns="http://www.w3.org/2000/svg">
<rect width="163" height="67" fill="#5390D9"/>
<path d="M48.6875 31.3906C48.5469 32.5938 48.1016 33.5234 47.3516 34.1797C46.6068 34.8307 45.6146 35.1562 44.375 35.1562C43.0312 35.1562 41.9531 34.6745 41.1406 33.7109C40.3333 32.7474 39.9297 31.4583 39.9297 29.8438V28.75C39.9297 27.6927 40.1172 26.763 40.4922 25.9609C40.8724 25.1589 41.4089 24.5443 42.1016 24.1172C42.7943 23.6849 43.5964 23.4688 44.5078 23.4688C45.7161 23.4688 46.6849 23.8073 47.4141 24.4844C48.1432 25.1562 48.5677 26.0885 48.6875 27.2812H47.1797C47.0495 26.375 46.7656 25.7188 46.3281 25.3125C45.8958 24.9062 45.2891 24.7031 44.5078 24.7031C43.5495 24.7031 42.7969 25.0573 42.25 25.7656C41.7083 26.474 41.4375 27.4818 41.4375 28.7891V29.8906C41.4375 31.125 41.6953 32.1068 42.2109 32.8359C42.7266 33.5651 43.4479 33.9297 44.375 33.9297C45.2083 33.9297 45.8464 33.7422 46.2891 33.3672C46.737 32.987 47.0339 32.3281 47.1797 31.3906H48.6875ZM50.1328 30.6953C50.1328 29.8672 50.2943 29.1224 50.6172 28.4609C50.9453 27.7995 51.3984 27.2891 51.9766 26.9297C52.5599 26.5703 53.224 26.3906 53.9688 26.3906C55.1198 26.3906 56.0495 26.7891 56.7578 27.5859C57.4714 28.3828 57.8281 29.4427 57.8281 30.7656V30.8672C57.8281 31.6901 57.6693 32.4297 57.3516 33.0859C57.0391 33.737 56.5885 34.2448 56 34.6094C55.4167 34.974 54.7448 35.1562 53.9844 35.1562C52.8385 35.1562 51.9089 34.7578 51.1953 33.9609C50.487 33.1641 50.1328 32.1094 50.1328 30.7969V30.6953ZM51.5859 30.8672C51.5859 31.8047 51.8021 32.5573 52.2344 33.125C52.6719 33.6927 53.2552 33.9766 53.9844 33.9766C54.7188 33.9766 55.3021 33.6901 55.7344 33.1172C56.1667 32.5391 56.3828 31.7318 56.3828 30.6953C56.3828 29.7682 56.1615 29.0182 55.7188 28.4453C55.2812 27.8672 54.6979 27.5781 53.9688 27.5781C53.2552 27.5781 52.6797 27.862 52.2422 28.4297C51.8047 28.9974 51.5859 29.8099 51.5859 30.8672ZM61.0078 26.5469L61.0547 27.6094C61.7005 26.7969 62.5443 26.3906 63.5859 26.3906C65.3724 26.3906 66.2734 27.3984 66.2891 29.4141V35H64.8438V29.4062C64.8385 28.7969 64.6979 28.3464 64.4219 28.0547C64.151 27.763 63.7266 27.6172 63.1484 27.6172C62.6797 27.6172 62.2682 27.7422 61.9141 27.9922C61.5599 28.2422 61.2839 28.5703 61.0859 28.9766V35H59.6406V26.5469H61.0078ZM70.4297 24.5V26.5469H72.0078V27.6641H70.4297V32.9062C70.4297 33.2448 70.5 33.5 70.6406 33.6719C70.7812 33.8385 71.0208 33.9219 71.3594 33.9219C71.526 33.9219 71.7552 33.8906 72.0469 33.8281V35C71.6667 35.1042 71.2969 35.1562 70.9375 35.1562C70.2917 35.1562 69.8047 34.9609 69.4766 34.5703C69.1484 34.1797 68.9844 33.625 68.9844 32.9062V27.6641H67.4453V26.5469H68.9844V24.5H70.4297ZM78.9219 35C78.8385 34.8333 78.7708 34.5365 78.7188 34.1094C78.0469 34.8073 77.2448 35.1562 76.3125 35.1562C75.4792 35.1562 74.7943 34.9219 74.2578 34.4531C73.7266 33.9792 73.4609 33.3802 73.4609 32.6562C73.4609 31.776 73.7943 31.0938 74.4609 30.6094C75.1328 30.1198 76.0755 29.875 77.2891 29.875H78.6953V29.2109C78.6953 28.7057 78.5443 28.3047 78.2422 28.0078C77.9401 27.7057 77.4948 27.5547 76.9062 27.5547C76.3906 27.5547 75.9583 27.6849 75.6094 27.9453C75.2604 28.2057 75.0859 28.5208 75.0859 28.8906H73.6328C73.6328 28.4688 73.7812 28.0625 74.0781 27.6719C74.3802 27.276 74.7865 26.9635 75.2969 26.7344C75.8125 26.5052 76.3776 26.3906 76.9922 26.3906C77.9661 26.3906 78.7292 26.6354 79.2812 27.125C79.8333 27.6094 80.1198 28.2786 80.1406 29.1328V33.0234C80.1406 33.7995 80.2396 34.4167 80.4375 34.875V35H78.9219ZM76.5234 33.8984C76.9766 33.8984 77.4062 33.7812 77.8125 33.5469C78.2188 33.3125 78.513 33.0078 78.6953 32.6328V30.8984H77.5625C75.7917 30.8984 74.9062 31.4167 74.9062 32.4531C74.9062 32.9062 75.0573 33.2604 75.3594 33.5156C75.6615 33.7708 76.0495 33.8984 76.5234 33.8984ZM85.7969 33.9766C86.3125 33.9766 86.763 33.8203 87.1484 33.5078C87.5339 33.1953 87.7474 32.8047 87.7891 32.3359H89.1562C89.1302 32.8203 88.9635 33.2812 88.6562 33.7188C88.349 34.1562 87.9375 34.5052 87.4219 34.7656C86.9115 35.026 86.3698 35.1562 85.7969 35.1562C84.6458 35.1562 83.7292 34.7734 83.0469 34.0078C82.3698 33.237 82.0312 32.1849 82.0312 30.8516V30.6094C82.0312 29.7865 82.1823 29.0547 82.4844 28.4141C82.7865 27.7734 83.2188 27.276 83.7812 26.9219C84.349 26.5677 85.0182 26.3906 85.7891 26.3906C86.737 26.3906 87.5234 26.6745 88.1484 27.2422C88.7786 27.8099 89.1146 28.5469 89.1562 29.4531H87.7891C87.7474 28.9062 87.5391 28.4583 87.1641 28.1094C86.7943 27.7552 86.3359 27.5781 85.7891 27.5781C85.0547 27.5781 84.4844 27.8438 84.0781 28.375C83.6771 28.901 83.4766 29.6641 83.4766 30.6641V30.9375C83.4766 31.9115 83.6771 32.6615 84.0781 33.1875C84.4792 33.7135 85.0521 33.9766 85.7969 33.9766ZM92.7422 24.5V26.5469H94.3203V27.6641H92.7422V32.9062C92.7422 33.2448 92.8125 33.5 92.9531 33.6719C93.0938 33.8385 93.3333 33.9219 93.6719 33.9219C93.8385 33.9219 94.0677 33.8906 94.3594 33.8281V35C93.9792 35.1042 93.6094 35.1562 93.25 35.1562C92.6042 35.1562 92.1172 34.9609 91.7891 34.5703C91.4609 34.1797 91.2969 33.625 91.2969 32.9062V27.6641H89.7578V26.5469H91.2969V24.5H92.7422ZM108.219 23.625V31.3594C108.214 32.4323 107.875 33.3099 107.203 33.9922C106.536 34.6745 105.63 35.0573 104.484 35.1406L104.086 35.1562C102.841 35.1562 101.849 34.8203 101.109 34.1484C100.37 33.4766 99.9948 32.5521 99.9844 31.375V23.625H101.469V31.3281C101.469 32.151 101.695 32.7917 102.148 33.25C102.602 33.7031 103.247 33.9297 104.086 33.9297C104.935 33.9297 105.583 33.7031 106.031 33.25C106.484 32.7969 106.711 32.1589 106.711 31.3359V23.625H108.219ZM115.281 32.7578C115.281 32.3672 115.133 32.0651 114.836 31.8516C114.544 31.6328 114.031 31.4453 113.297 31.2891C112.568 31.1328 111.987 30.9453 111.555 30.7266C111.128 30.5078 110.81 30.2474 110.602 29.9453C110.398 29.6432 110.297 29.2839 110.297 28.8672C110.297 28.1745 110.589 27.5885 111.172 27.1094C111.76 26.6302 112.51 26.3906 113.422 26.3906C114.38 26.3906 115.156 26.638 115.75 27.1328C116.349 27.6276 116.648 28.2604 116.648 29.0312H115.195C115.195 28.6354 115.026 28.2943 114.688 28.0078C114.354 27.7214 113.932 27.5781 113.422 27.5781C112.896 27.5781 112.484 27.6927 112.188 27.9219C111.891 28.151 111.742 28.4505 111.742 28.8203C111.742 29.1693 111.88 29.4323 112.156 29.6094C112.432 29.7865 112.93 29.9557 113.648 30.1172C114.372 30.2786 114.958 30.4714 115.406 30.6953C115.854 30.9193 116.185 31.1901 116.398 31.5078C116.617 31.8203 116.727 32.2031 116.727 32.6562C116.727 33.4115 116.424 34.0182 115.82 34.4766C115.216 34.9297 114.432 35.1562 113.469 35.1562C112.792 35.1562 112.193 35.0365 111.672 34.7969C111.151 34.5573 110.742 34.224 110.445 33.7969C110.154 33.3646 110.008 32.8984 110.008 32.3984H111.453C111.479 32.8828 111.672 33.2682 112.031 33.5547C112.396 33.8359 112.875 33.9766 113.469 33.9766C114.016 33.9766 114.453 33.8672 114.781 33.6484C115.115 33.4245 115.281 33.1276 115.281 32.7578ZM120.227 31.7891H118.922L118.82 23.625H120.336L120.227 31.7891ZM118.766 34.2734C118.766 34.0391 118.836 33.8438 118.977 33.6875C119.122 33.526 119.336 33.4453 119.617 33.4453C119.898 33.4453 120.112 33.526 120.258 33.6875C120.404 33.8438 120.477 34.0391 120.477 34.2734C120.477 34.5078 120.404 34.7031 120.258 34.8594C120.112 35.0104 119.898 35.0859 119.617 35.0859C119.336 35.0859 119.122 35.0104 118.977 34.8594C118.836 34.7031 118.766 34.5078 118.766 34.2734Z" fill="#CAF0F8"/>
</svg>
