<svg width="573" height="773" viewBox="0 0 573 773" fill="none" xmlns="http://www.w3.org/2000/svg">
<mask id="mask0" mask-type="alpha" maskUnits="userSpaceOnUse" x="0" y="0" width="773" height="773">
<circle cx="386.502" cy="386.502" r="275.073" transform="rotate(51.7977 386.502 386.502)" fill="#C4C4C4"/>
</mask>
<g mask="url(#mask0)">
<line x1="601.081" y1="-167.983" x2="-324.241" y2="560.233" stroke="#48BFE3" stroke-width="2"/>
<line x1="792.089" y1="74.7238" x2="-133.233" y2="802.94" stroke="#48BFE3" stroke-width="2"/>
<line x1="624.957" y1="-137.645" x2="-300.365" y2="590.571" stroke="#48BFE3" stroke-width="2"/>
<line x1="815.965" y1="105.062" x2="-109.357" y2="833.278" stroke="#48BFE3" stroke-width="2"/>
<line x1="648.834" y1="-107.307" x2="-276.489" y2="620.909" stroke="#48BFE3" stroke-width="2"/>
<line x1="839.841" y1="135.401" x2="-85.4814" y2="863.617" stroke="#48BFE3" stroke-width="2"/>
<line x1="672.709" y1="-76.9683" x2="-252.613" y2="651.248" stroke="#48BFE3" stroke-width="2"/>
<line x1="863.717" y1="165.739" x2="-61.6056" y2="893.955" stroke="#48BFE3" stroke-width="2"/>
<line x1="696.585" y1="-46.6302" x2="-228.737" y2="681.586" stroke="#48BFE3" stroke-width="2"/>
<line x1="887.593" y1="196.077" x2="-37.7295" y2="924.293" stroke="#48BFE3" stroke-width="2"/>
<line x1="720.461" y1="-16.2916" x2="-204.861" y2="711.924" stroke="#48BFE3" stroke-width="2"/>
<line x1="911.469" y1="226.416" x2="-13.8537" y2="954.632" stroke="#48BFE3" stroke-width="2"/>
<line x1="744.337" y1="14.0471" x2="-180.985" y2="742.263" stroke="#48BFE3" stroke-width="2"/>
<line x1="935.345" y1="256.754" x2="10.0223" y2="984.97" stroke="#48BFE3" stroke-width="2"/>
<line x1="768.213" y1="44.3853" x2="-157.109" y2="772.601" stroke="#48BFE3" stroke-width="2"/>
<line x1="959.221" y1="287.093" x2="33.8982" y2="1015.31" stroke="#48BFE3" stroke-width="2"/>
</g>
</svg>
